<svg width="44" height="44" viewBox="0 0 44 44" fill="none" xmlns="http://www.w3.org/2000/svg">
<g clip-path="url(#clip0_1_5)">
<mask id="mask0_1_5" style="mask-type:luminance" maskUnits="userSpaceOnUse" x="0" y="0" width="44" height="44">
<path d="M22 44C34.1503 44 44 34.1503 44 22C44 9.84974 34.1503 0 22 0C9.84974 0 0 9.84974 0 22C0 34.1503 9.84974 44 22 44Z" fill="white"/>
</mask>
<g mask="url(#mask0_1_5)">
<path d="M0 0H44V44H0V0Z" fill="#D80027"/>
<path d="M12.0398 13.3891L13.9391 19.2328H20.0836L15.1164 22.8508L17.0156 28.6945L12.0398 25.0852L7.06406 28.6945L8.97188 22.8508L3.99609 19.2328H10.1406L12.0398 13.3891ZM26.082 34.0742L24.6297 32.2867L22.4813 33.1203L23.7273 31.1867L22.275 29.3906L24.5008 29.9836L25.7555 28.05L25.8758 30.3531L28.1102 30.9461L25.9531 31.7711L26.082 34.0742ZM28.9695 28.832L29.657 26.632L27.775 25.3L30.0781 25.2656L30.757 23.0656L31.5047 25.2484L33.8078 25.2227L31.9602 26.5977L32.6992 28.7805L30.8172 27.4484L28.9695 28.832ZM32.8625 16.1477L31.8484 18.2188L33.4984 19.8258L31.2211 19.4992L30.207 21.5617L29.8117 19.293L27.5258 18.9664L29.5711 17.8922L29.1758 15.6148L30.8258 17.2219L32.8625 16.1477ZM26.1422 9.87422L25.9703 12.1688L28.1102 13.0367L25.8672 13.5867L25.7039 15.8898L24.4922 13.9305L22.2492 14.4805L23.7359 12.7188L22.5156 10.768L24.6555 11.6359L26.1422 9.87422Z" fill="#FFDA44"/>
</g>
</g>
<defs>
<clipPath id="clip0_1_5">
<rect width="44" height="44" fill="white"/>
</clipPath>
</defs>
</svg>
