<svg width="44" height="44" viewBox="0 0 44 44" fill="none" xmlns="http://www.w3.org/2000/svg">
<g clip-path="url(#clip0_1_20)">
<mask id="mask0_1_20" style="mask-type:luminance" maskUnits="userSpaceOnUse" x="0" y="0" width="44" height="44">
<path d="M22 44C34.1503 44 44 34.1503 44 22C44 9.84974 34.1503 0 22 0C9.84974 0 0 9.84974 0 22C0 34.1503 9.84974 44 22 44Z" fill="white"/>
</mask>
<g mask="url(#mask0_1_20)">
<path d="M0 13.75L22 11L44 13.75V30.25L22 33L0 30.25V13.75Z" fill="#EEEEEE"/>
<path d="M0 0H44V13.75H0V0Z" fill="#FF9811"/>
<path d="M0 30.25H44V44H0V30.25Z" fill="#6DA544"/>
<path d="M22 28.1875C25.4173 28.1875 28.1875 25.4173 28.1875 22C28.1875 18.5827 25.4173 15.8125 22 15.8125C18.5827 15.8125 15.8125 18.5827 15.8125 22C15.8125 25.4173 18.5827 28.1875 22 28.1875Z" fill="#0052B4"/>
<path d="M22 26.125C24.2782 26.125 26.125 24.2782 26.125 22C26.125 19.7218 24.2782 17.875 22 17.875C19.7218 17.875 17.875 19.7218 17.875 22C17.875 24.2782 19.7218 26.125 22 26.125Z" fill="#EEEEEE"/>
<path d="M22 24.0625C23.1391 24.0625 24.0625 23.1391 24.0625 22C24.0625 20.8609 23.1391 19.9375 22 19.9375C20.8609 19.9375 19.9375 20.8609 19.9375 22C19.9375 23.1391 20.8609 24.0625 22 24.0625Z" fill="#0052B4"/>
</g>
</g>
<defs>
<clipPath id="clip0_1_20">
<rect width="44" height="44" fill="white"/>
</clipPath>
</defs>
</svg>
