<svg width="44" height="44" viewBox="0 0 44 44" fill="none" xmlns="http://www.w3.org/2000/svg">
<g clip-path="url(#clip0_1_38)">
<mask id="mask0_1_38" style="mask-type:luminance" maskUnits="userSpaceOnUse" x="0" y="0" width="44" height="44">
<path d="M22 44C34.1503 44 44 34.1503 44 22C44 9.84974 34.1503 0 22 0C9.84974 0 0 9.84974 0 22C0 34.1503 9.84974 44 22 44Z" fill="white"/>
</mask>
<g mask="url(#mask0_1_38)">
<path d="M0 0H44V44H0V0Z" fill="#EEEEEE"/>
<path d="M29.6484 22C29.6484 23.9164 26.2281 28.7031 22 28.7031C17.7719 28.7031 14.3516 23.9164 14.3516 22C14.3516 19.9715 15.1574 18.0261 16.5917 16.5917C18.0261 15.1574 19.9715 14.3516 22 14.3516C24.0285 14.3516 25.9739 15.1574 27.4083 16.5917C28.8426 18.0261 29.6484 19.9715 29.6484 22Z" fill="#D80027"/>
<path d="M29.6484 22C29.6484 24.0285 28.8426 25.9739 27.4083 27.4083C25.9739 28.8426 24.0285 29.6484 22 29.6484C19.9715 29.6484 18.0261 28.8426 16.5917 27.4083C15.1574 25.9739 14.3516 24.0285 14.3516 22" fill="#0052B4"/>
<path d="M30.1125 28.7633L32.1492 26.7352L33.4984 28.0844L31.4703 30.1125L30.1125 28.7633ZM26.7352 32.1492L28.7633 30.1125L30.1125 31.4703L28.0844 33.4984L26.7352 32.1492ZM34.1773 32.8195L36.2055 30.7914L37.5547 32.1406L35.5266 34.1773L34.1773 32.8195ZM30.7914 36.2055L32.8195 34.1773L34.1773 35.5266L32.1406 37.5547L30.7914 36.2055ZM32.1492 30.7914L34.1773 28.7633L35.5266 30.1125L33.4984 32.1492L32.1492 30.7914ZM28.7633 34.1773L30.7914 32.1492L32.1492 33.4984L30.1125 35.5266L28.7633 34.1773ZM34.1773 15.2367L28.7633 9.82266L30.1211 8.47344L35.5352 13.8875L34.1773 15.2367ZM28.7633 13.8875L26.7352 11.8508L28.0844 10.5016L30.1211 12.5297L28.7633 13.8875ZM32.1492 17.2648L30.1125 15.2367L31.4703 13.8875L33.4984 15.9156L32.1492 17.2648ZM32.8195 9.82266L30.7914 7.79453L32.1406 6.44532L34.1773 8.47344L32.8195 9.82266ZM36.2055 13.2086L34.1773 11.1719L35.5266 9.81407L37.5547 11.8594L36.2055 13.2086ZM7.79453 30.7914L13.2086 36.2055L11.8508 37.5547L6.43672 32.1406L7.79453 30.7914ZM13.2086 32.1406L15.2367 34.1773L13.8875 35.5266L11.8508 33.4984L13.2086 32.1406ZM9.82266 28.7633L11.8508 30.7914L10.5016 32.1492L8.47344 30.1125L9.82266 28.7633ZM11.8508 26.7352L17.2648 32.1492L15.9156 33.4984L10.5016 28.0844L11.8508 26.7352ZM13.2086 7.79453L7.79453 13.2086L6.44532 11.8508L11.8594 6.43672L13.2086 7.79453ZM15.2367 9.82266L9.82266 15.2367L8.47344 13.8789L13.8875 8.46485L15.2367 9.82266ZM17.2648 11.8508L11.8508 17.2648L10.5016 15.9156L15.9156 10.5016L17.2648 11.8508Z" fill="#333333"/>
</g>
</g>
<defs>
<clipPath id="clip0_1_38">
<rect width="44" height="44" fill="white"/>
</clipPath>
</defs>
</svg>
